# xmcd
#
# Track frame offsets:
#	182
#	31762
#	52675
#	72465
#	95805
#	131947
#	170290
#	189802
#
# Disc length: 2778 seconds
#
# Revision: 1
# Processed by: cddbd v1.4PL0 Copyright (c) Steve Scherf et al.
# Submitted via: audiograbber 1.80
#
DISCID=650ad808
DTITLE=Midnight Star - No Parking On The Dance Floor
DYEAR=1900
DGENRE=
TTITLE0=Electricity
TTITLE1=Night Rider
TTITLE2=Feels So Good
TTITLE3=Wet My Whistle
TTITLE4=No Parking (On The Dance Floor)
TTITLE5=Freak-A-Zoid
TTITLE6=Slow Jam
TTITLE7=Playmates
EXTD=
EXTT0=
EXTT1=
EXTT2=
EXTT3=
EXTT4=
EXTT5=
EXTT6=
EXTT7=
PLAYORDER=
